<svg id="Layer_1" data-name="Layer 1" xmlns="http://www.w3.org/2000/svg" viewBox="0 0 123 45.2"><defs><style>.cls-1{fill:#fff;}</style></defs><title>logo</title><path class="cls-1" d="M309.42,365.43c-5-6-14.7-10.89-25.56-10.89a35.6,35.6,0,0,0-18.63,5.23l2.3,3.19a31.7,31.7,0,0,1,16.33-4.5c8.4,0,16,3.25,20.14,7h5.42Z" transform="translate(-250.02 -354.54)"/><path class="cls-1" d="M325,388.48c4.2,4,12,7.35,20.53,7.35A31.7,31.7,0,0,0,362.43,391l2.15,3.28a35.6,35.6,0,0,1-19,5.47c-11,0-20.85-5-25.88-11.26H325Z" transform="translate(-250.02 -354.54)"/><path class="cls-1" d="M254.21,372.41v2.69h4.59v3.55h-4.59V385H250V368.86h9.25v3.55h-5.07Z" transform="translate(-250.02 -354.54)"/><path class="cls-1" d="M265.08,381.42h5V385h-9.21V368.86h4.19v12.57Z" transform="translate(-250.02 -354.54)"/><path class="cls-1" d="M287.21,376.62a8.91,8.91,0,0,1-17.82,0c0-4.87,4.27-8.29,8.91-8.29S287.21,371.74,287.21,376.62Zm-13.46,0a4.56,4.56,0,1,0,9.1,0A4.56,4.56,0,0,0,273.74,376.64Z" transform="translate(-250.02 -354.54)"/><path class="cls-1" d="M293.58,379.27h0L297,368.86h3.33l3.16,10.41h0l3-10.41h4.36L305.78,385h-4.27l-2.82-9.34h0L295.48,385h-4.25l-4.81-16.11h4.36Z" transform="translate(-250.02 -354.54)"/><path class="cls-1" d="M319.78,373a4.41,4.41,0,0,0-2.78-1.07,1.64,1.64,0,0,0-1.8,1.35c0,0.94,1.13,1.3,1.86,1.54l1.07,0.32c2.24,0.66,4,1.79,4,4.4a5.47,5.47,0,0,1-1.67,4.34,7.07,7.07,0,0,1-4.57,1.52,9.94,9.94,0,0,1-5.66-1.84l1.79-3.38a5.75,5.75,0,0,0,3.72,1.67,1.78,1.78,0,0,0,2-1.62c0-1.18-1.65-1.58-2.54-1.84-2.63-.75-4.36-1.43-4.36-4.55a5.22,5.22,0,0,1,5.56-5.41,11,11,0,0,1,5,1.33Z" transform="translate(-250.02 -354.54)"/><path class="cls-1" d="M327.82,372.41v2.69h4.72v3.55h-4.72v2.78h5V385h-9.17V368.86h9.17v3.55h-5Z" transform="translate(-250.02 -354.54)"/><path class="cls-1" d="M348.37,385h-5.21l-4-6.2h0V385H335V368.86h6.26c3.18,0,5.6,1.52,5.6,5a4.33,4.33,0,0,1-3.53,4.55Zm-9.21-8.89h0.41c1.37,0,2.91-.26,2.91-2s-1.54-2-2.91-2h-0.41v4Z" transform="translate(-250.02 -354.54)"/><path class="cls-1" d="M354.75,378.65l3.91-9.79h4.55L356.33,385h-3.25l-6.77-16.11h4.55Z" transform="translate(-250.02 -354.54)"/><path class="cls-1" d="M368,372.41v2.69h4.72v3.55H368v2.78h5V385h-9.17V368.86H373v3.55h-5Z" transform="translate(-250.02 -354.54)"/><path class="cls-1" d="M366.57,389.62a1.26,1.26,0,1,1,1.26,1.29A1.25,1.25,0,0,1,366.57,389.62Zm1.26,1.55a1.55,1.55,0,1,0-1.57-1.55A1.55,1.55,0,0,0,367.83,391.18Zm-0.33-1.43h0.31l0.47,0.77h0.3l-0.51-.78a0.47,0.47,0,0,0,.46-0.49,0.51,0.51,0,0,0-.63-0.51h-0.68v1.79h0.27v-0.77Zm0-.23V389h0.37c0.19,0,.39,0,0.39.26s-0.21.29-.44,0.29H367.5Z" transform="translate(-250.02 -354.54)"/></svg>